<mxfile host="app.diagrams.net" agent="Mozilla/5.0 (Windows NT 10.0; Win64; x64) AppleWebKit/537.36 (KHTML, like Gecko) Chrome/140.0.0.0 Safari/537.36" version="28.2.5">
  <diagram name="Página-1" id="Ajft46kBnBdpl2RoagXy">
    <mxGraphModel dx="1426" dy="777" grid="1" gridSize="10" guides="1" tooltips="1" connect="1" arrows="1" fold="1" page="1" pageScale="1" pageWidth="827" pageHeight="1169" math="0" shadow="0">
      <root>
        <mxCell id="0" />
        <mxCell id="1" parent="0" />
        <mxCell id="fgHbZaubmFFjgYlhQ18O-7" value="" style="rounded=0;whiteSpace=wrap;html=1;fillColor=#b1ddf0;strokeColor=#10739e;" vertex="1" parent="1">
          <mxGeometry x="55" y="50" width="260" height="410" as="geometry" />
        </mxCell>
        <mxCell id="fgHbZaubmFFjgYlhQ18O-2" value="Nombres" style="rounded=0;whiteSpace=wrap;html=1;fillColor=#f9f7ed;strokeColor=#36393d;" vertex="1" parent="1">
          <mxGeometry x="90" y="70" width="190" height="60" as="geometry" />
        </mxCell>
        <mxCell id="fgHbZaubmFFjgYlhQ18O-3" value="Apellidos" style="rounded=0;whiteSpace=wrap;html=1;fillColor=#f9f7ed;strokeColor=#36393d;" vertex="1" parent="1">
          <mxGeometry x="90" y="150" width="190" height="60" as="geometry" />
        </mxCell>
        <mxCell id="fgHbZaubmFFjgYlhQ18O-4" value="email" style="rounded=0;whiteSpace=wrap;html=1;fillColor=#f9f7ed;strokeColor=#36393d;" vertex="1" parent="1">
          <mxGeometry x="90" y="230" width="190" height="60" as="geometry" />
        </mxCell>
        <mxCell id="fgHbZaubmFFjgYlhQ18O-5" value="móvil" style="rounded=0;whiteSpace=wrap;html=1;fillColor=#f9f7ed;strokeColor=#36393d;" vertex="1" parent="1">
          <mxGeometry x="90" y="310" width="190" height="60" as="geometry" />
        </mxCell>
        <mxCell id="fgHbZaubmFFjgYlhQ18O-8" style="edgeStyle=orthogonalEdgeStyle;rounded=0;orthogonalLoop=1;jettySize=auto;html=1;exitX=0.5;exitY=1;exitDx=0;exitDy=0;" edge="1" parent="1" source="fgHbZaubmFFjgYlhQ18O-7" target="fgHbZaubmFFjgYlhQ18O-7">
          <mxGeometry relative="1" as="geometry" />
        </mxCell>
        <mxCell id="fgHbZaubmFFjgYlhQ18O-9" value="" style="whiteSpace=wrap;html=1;aspect=fixed;fillColor=#b0e3e6;strokeColor=#0e8088;" vertex="1" parent="1">
          <mxGeometry x="345" y="60" width="400" height="400" as="geometry" />
        </mxCell>
        <mxCell id="fgHbZaubmFFjgYlhQ18O-11" value="Busqueda" style="rounded=1;whiteSpace=wrap;html=1;" vertex="1" parent="1">
          <mxGeometry x="400" y="70" width="290" height="30" as="geometry" />
        </mxCell>
        <mxCell id="fgHbZaubmFFjgYlhQ18O-12" value="total contactos" style="swimlane;fontStyle=0;childLayout=stackLayout;horizontal=1;startSize=30;horizontalStack=0;resizeParent=1;resizeParentMax=0;resizeLast=0;collapsible=1;marginBottom=0;whiteSpace=wrap;html=1;" vertex="1" parent="1">
          <mxGeometry x="400" y="110" width="290" height="270" as="geometry" />
        </mxCell>
        <mxCell id="fgHbZaubmFFjgYlhQ18O-13" value="Item 1" style="text;strokeColor=none;fillColor=none;align=left;verticalAlign=middle;spacingLeft=4;spacingRight=4;overflow=hidden;points=[[0,0.5],[1,0.5]];portConstraint=eastwest;rotatable=0;whiteSpace=wrap;html=1;" vertex="1" parent="fgHbZaubmFFjgYlhQ18O-12">
          <mxGeometry y="30" width="290" height="30" as="geometry" />
        </mxCell>
        <mxCell id="fgHbZaubmFFjgYlhQ18O-14" value="Item 2" style="text;strokeColor=none;fillColor=none;align=left;verticalAlign=middle;spacingLeft=4;spacingRight=4;overflow=hidden;points=[[0,0.5],[1,0.5]];portConstraint=eastwest;rotatable=0;whiteSpace=wrap;html=1;" vertex="1" parent="fgHbZaubmFFjgYlhQ18O-12">
          <mxGeometry y="60" width="290" height="30" as="geometry" />
        </mxCell>
        <mxCell id="fgHbZaubmFFjgYlhQ18O-15" value="Item 3" style="text;strokeColor=none;fillColor=none;align=left;verticalAlign=middle;spacingLeft=4;spacingRight=4;overflow=hidden;points=[[0,0.5],[1,0.5]];portConstraint=eastwest;rotatable=0;whiteSpace=wrap;html=1;" vertex="1" parent="fgHbZaubmFFjgYlhQ18O-12">
          <mxGeometry y="90" width="290" height="30" as="geometry" />
        </mxCell>
        <mxCell id="fgHbZaubmFFjgYlhQ18O-16" value="Item 3" style="text;strokeColor=none;fillColor=none;align=left;verticalAlign=middle;spacingLeft=4;spacingRight=4;overflow=hidden;points=[[0,0.5],[1,0.5]];portConstraint=eastwest;rotatable=0;whiteSpace=wrap;html=1;" vertex="1" parent="fgHbZaubmFFjgYlhQ18O-12">
          <mxGeometry y="120" width="290" height="30" as="geometry" />
        </mxCell>
        <mxCell id="fgHbZaubmFFjgYlhQ18O-17" value="Item 3" style="text;strokeColor=none;fillColor=none;align=left;verticalAlign=middle;spacingLeft=4;spacingRight=4;overflow=hidden;points=[[0,0.5],[1,0.5]];portConstraint=eastwest;rotatable=0;whiteSpace=wrap;html=1;" vertex="1" parent="fgHbZaubmFFjgYlhQ18O-12">
          <mxGeometry y="150" width="290" height="30" as="geometry" />
        </mxCell>
        <mxCell id="fgHbZaubmFFjgYlhQ18O-18" value="Item 3" style="text;strokeColor=none;fillColor=none;align=left;verticalAlign=middle;spacingLeft=4;spacingRight=4;overflow=hidden;points=[[0,0.5],[1,0.5]];portConstraint=eastwest;rotatable=0;whiteSpace=wrap;html=1;" vertex="1" parent="fgHbZaubmFFjgYlhQ18O-12">
          <mxGeometry y="180" width="290" height="30" as="geometry" />
        </mxCell>
        <mxCell id="fgHbZaubmFFjgYlhQ18O-19" value="Item 3" style="text;strokeColor=none;fillColor=none;align=left;verticalAlign=middle;spacingLeft=4;spacingRight=4;overflow=hidden;points=[[0,0.5],[1,0.5]];portConstraint=eastwest;rotatable=0;whiteSpace=wrap;html=1;" vertex="1" parent="fgHbZaubmFFjgYlhQ18O-12">
          <mxGeometry y="210" width="290" height="30" as="geometry" />
        </mxCell>
        <mxCell id="fgHbZaubmFFjgYlhQ18O-20" value="Item 3" style="text;strokeColor=none;fillColor=none;align=left;verticalAlign=middle;spacingLeft=4;spacingRight=4;overflow=hidden;points=[[0,0.5],[1,0.5]];portConstraint=eastwest;rotatable=0;whiteSpace=wrap;html=1;" vertex="1" parent="fgHbZaubmFFjgYlhQ18O-12">
          <mxGeometry y="240" width="290" height="30" as="geometry" />
        </mxCell>
        <mxCell id="fgHbZaubmFFjgYlhQ18O-21" value="+" style="ellipse;whiteSpace=wrap;html=1;" vertex="1" parent="1">
          <mxGeometry x="400" y="400" width="50" height="40" as="geometry" />
        </mxCell>
        <mxCell id="fgHbZaubmFFjgYlhQ18O-22" value="add" style="ellipse;whiteSpace=wrap;html=1;" vertex="1" parent="1">
          <mxGeometry x="100" y="390" width="50" height="40" as="geometry" />
        </mxCell>
        <mxCell id="fgHbZaubmFFjgYlhQ18O-23" value="+" style="ellipse;whiteSpace=wrap;html=1;fillColor=#f8cecc;gradientColor=#ea6b66;strokeColor=#b85450;" vertex="1" parent="1">
          <mxGeometry x="700" y="150" width="20" height="15" as="geometry" />
        </mxCell>
        <mxCell id="fgHbZaubmFFjgYlhQ18O-24" value="+" style="ellipse;whiteSpace=wrap;html=1;fillColor=#f8cecc;gradientColor=#ea6b66;strokeColor=#b85450;" vertex="1" parent="1">
          <mxGeometry x="700" y="172.5" width="20" height="15" as="geometry" />
        </mxCell>
        <mxCell id="fgHbZaubmFFjgYlhQ18O-26" value="+" style="ellipse;whiteSpace=wrap;html=1;fillColor=#f8cecc;gradientColor=#ea6b66;strokeColor=#b85450;" vertex="1" parent="1">
          <mxGeometry x="700" y="195" width="20" height="15" as="geometry" />
        </mxCell>
        <mxCell id="fgHbZaubmFFjgYlhQ18O-27" value="+" style="ellipse;whiteSpace=wrap;html=1;fillColor=#6d8764;fontColor=#ffffff;strokeColor=#3A5431;" vertex="1" parent="1">
          <mxGeometry x="725" y="150" width="20" height="15" as="geometry" />
        </mxCell>
      </root>
    </mxGraphModel>
  </diagram>
</mxfile>
